<svg width="172" height="25" viewBox="0 0 172 25" fill="none" xmlns="http://www.w3.org/2000/svg">
<path fill-rule="evenodd" clip-rule="evenodd" d="M13.8723 24.5687C20.5262 24.5687 25.9203 19.1746 25.9203 12.5207C25.9203 5.86673 20.5262 0.472656 13.8723 0.472656C7.21837 0.472656 1.8243 5.86673 1.8243 12.5207C1.8243 19.1746 7.21837 24.5687 13.8723 24.5687ZM8.58845 16.8647C7.50698 17.92 6.27536 19.084 5.10152 16.5846C3.92768 14.0853 3.92881 10.7136 5.28751 8.18443C6.37524 6.15971 7.72056 6.94608 8.78193 7.98085L13.2391 12.3263L8.58845 16.8647ZM9.81442 7.18314C8.71547 6.11357 8.07029 4.31128 9.96834 3.5587C12.4379 2.18514 15.4332 2.29185 17.8731 3.56518C19.9139 4.63017 19.229 6.15352 18.0985 7.25385L13.9928 11.2499L9.81442 7.18314ZM18.5792 21.2032C20.0881 20.2467 19.6102 18.8467 18.6317 17.8556L13.9928 13.1567L9.35145 17.8574C8.33792 18.8839 7.39774 20.0715 9.46708 21.2982C12.1787 22.9056 16.0117 22.8307 18.5792 21.2032ZM22.7247 15.9563C21.8893 18.3024 20.1962 17.6263 19.0101 16.4506L14.849 12.3263L18.9927 8.22011C20.1274 7.09568 21.6936 6.36204 22.606 8.60387C23.5184 10.8457 23.5601 13.6102 22.7247 15.9563Z" fill="white"/>
<path d="M4.43523 22.397C4.43523 23.59 3.46817 24.557 2.27523 24.557C1.0823 24.557 0.115234 23.59 0.115234 22.397C0.115234 21.2041 1.0823 20.237 2.27523 20.237C3.46817 20.237 4.43523 21.2041 4.43523 22.397Z" fill="white"/>
<path fill-rule="evenodd" clip-rule="evenodd" d="M63.8467 4.50563C63.8467 4.50563 63.3252 8.11798 63.3353 10.4466C63.3449 12.6638 63.3353 15.8989 63.3353 15.8989C63.3353 20.0112 65.6332 22.7079 69.3411 22.7079C73.0489 22.7079 75.0156 20.5169 75.6107 15.8989V4.53932C75.6107 3.05845 73.9912 2.62308 72.9805 2.35138C72.7489 2.28912 72.5493 2.23546 72.4085 2.17977C71.653 1.8811 72.4085 1 72.4085 1H80.7336C80.7938 1 80.8519 1.00851 80.9069 1.0244C80.9344 1.02141 80.9623 1.02028 80.9907 1.02114C83.0249 1.08288 84.7889 1.05559 86.5197 1.02883C86.9869 1.0216 87.4518 1.01441 87.9188 1.00902C88.6971 1.00004 89.3384 1.60283 89.5815 2.34221C89.6499 2.55036 89.7275 2.76365 89.8121 2.99622L89.834 3.0562L95.3283 17.7528L100.452 3.02249C100.472 2.96717 100.492 2.91317 100.511 2.86027C100.578 2.67632 100.641 2.5057 100.697 2.3396C100.947 1.60274 101.588 1.00002 102.366 1.00002H121.033C127.37 1.00002 130.336 4.16856 130.336 8.01125C130.336 12.427 127.269 15.2584 120.966 15.2584H118.37V20.9214C118.37 22.6857 119.165 23.1838 121.829 23.4065C122.158 23.434 122.415 23.7064 122.415 24.0366C122.415 24.3825 122.135 24.6629 121.789 24.6629H111.342C110.997 24.6629 110.718 24.3838 110.718 24.0394C110.718 23.7225 110.957 23.4574 111.272 23.4155C113.132 23.1678 113.415 22.8553 113.415 21.1573C113.777 9.02524 113.777 6.35956 113.777 4.50563C113.777 2.6517 111.891 2.17979 109.523 2.17979C107.366 2.28092 105.677 2.85395 105.677 4.64046V21.4607C105.859 22.9233 106.38 23.4326 107.848 23.5917C108.128 23.622 108.348 23.8515 108.348 24.133C108.348 24.4257 108.111 24.6629 107.818 24.6629H97.9273C97.6323 24.6629 97.3931 24.4237 97.3931 24.1287C97.3931 23.8484 97.6105 23.6169 97.8895 23.5896C99.926 23.3907 100.991 22.8912 100.991 21.3595V6.56181L94.5193 24.6629H92.834L86.025 6.56181V21.3258C86.025 22.8804 86.7416 23.5486 88.8776 23.7624C89.1118 23.7858 89.2946 23.9799 89.2946 24.2153C89.2946 24.4625 89.0942 24.6629 88.847 24.6629H81.5331C81.5237 24.6629 81.5144 24.6629 81.5051 24.6625C81.4979 24.6623 81.4907 24.6619 81.4834 24.6613C81.3829 24.6524 81.0133 24.5995 81.0818 24.299C81.2137 23.7212 81.743 23.6021 82.3544 23.4645C83.2119 23.2716 84.2308 23.0424 84.5418 21.4607C85.0746 18.7511 84.5418 4.64046 84.5418 4.64046C84.5418 3.00691 82.9192 2.38794 80.9405 2.21661L80.9323 2.21584C80.8914 2.22993 80.8485 2.24 80.8041 2.24558C78.7559 2.50278 77.4309 2.86535 77.4309 4.53932C77.4309 4.53932 77.8857 11.1288 77.2559 16.6558C76.6261 22.1827 73.4534 25 68.4647 25C62.4984 25 58.9253 22.236 58.9253 16.4382V4.50563C58.9253 2.77903 58.633 2.30958 56.6868 2.03541C56.4268 1.99877 56.2287 1.77921 56.2287 1.5166C56.2287 1.2313 56.46 1.00002 56.7453 1.00002H65.9198C66.2642 1.00002 66.5433 1.27916 66.5433 1.6235C66.5433 1.94045 66.3042 2.20558 65.99 2.24741C64.1295 2.49515 63.8467 2.80759 63.8467 4.50563ZM118.37 2.34833V13.809H119.819C123.561 13.809 125.28 11.6854 125.28 8.11237C125.28 4.74159 123.46 2.34833 119.819 2.34833H118.37ZM59.7598 5.02176V2.52473C59.7598 2.44189 59.8272 2.37473 59.91 2.37473H62.4632C62.6254 2.37473 62.6723 2.59646 62.5239 2.66196L60.7594 3.44065C60.7238 3.45638 60.6957 3.48535 60.681 3.52144L60.0487 5.07821C59.9868 5.23081 59.7598 5.18647 59.7598 5.02176ZM88.3479 2.36972L85.6609 2.36934C85.5013 2.36931 85.4521 2.58554 85.596 2.65458L87.5836 3.60801C87.6038 3.61769 87.6215 3.63178 87.6356 3.64923L88.9445 5.27648C89.0462 5.40289 89.2482 5.30018 89.2062 5.14348L88.4929 2.48107C88.4753 2.4155 88.4158 2.36973 88.3479 2.36972ZM104.694 2.30449L102.267 2.30484C102.199 2.30485 102.139 2.35051 102.122 2.41608L101.478 4.81921C101.436 4.97591 101.638 5.07867 101.739 4.95226L102.915 3.49047C102.929 3.47301 102.947 3.45893 102.967 3.44924L104.759 2.58974C104.903 2.5207 104.854 2.30447 104.694 2.30449ZM114.71 2.13873L114.925 4.15217C114.944 4.33227 115.207 4.33026 115.224 4.14988L115.312 3.18266C115.317 3.1284 115.351 3.0811 115.401 3.0591L117.212 2.26C117.36 2.19451 117.313 1.97277 117.151 1.97277H114.859C114.77 1.97277 114.7 2.05008 114.71 2.13873Z" fill="white"/>
<path fill-rule="evenodd" clip-rule="evenodd" d="M42.5031 14.5506V21.1573C42.5031 22.8553 42.7859 23.1678 44.6464 23.4155C44.9606 23.4574 45.1997 23.7225 45.1997 24.0394C45.1997 24.3838 44.9206 24.6629 44.5763 24.6629H35.4749C35.1306 24.6629 34.8514 24.3838 34.8514 24.0394C34.8514 23.7225 35.0906 23.4574 35.4048 23.4155C37.2653 23.1678 37.5481 22.8553 37.5481 21.1573V4.50563C37.5481 4.50563 37.2931 2.80288 35.1761 2.50885C35.1761 2.50885 34.0499 2.40761 34.0498 1.78834C34.0497 1.16908 34.8514 1.00002 34.8514 1.00002H45.6042C51.1997 1.00002 54.6089 3.62923 54.6089 7.57305C54.6089 11.2472 51.4694 13.1686 48.9413 13.809C48.9413 13.809 51.0863 16.913 51.3391 17.3895C51.5919 17.866 54.0312 20.7191 54.0312 20.7191C55.5481 22.7753 56.3908 23.4494 58.1436 23.4832V24.6629H51.7391C50.7615 23.9551 49.9188 22.8764 48.9076 21.3596C48.9076 21.3596 47.5316 19.4382 46.5818 17.9551C45.6319 16.472 44.2559 14.5506 44.2559 14.5506H42.5031ZM44.0537 1.97751H42.5031C42.5031 1.97751 42.3842 3.84464 42.5031 5.07024C42.622 6.29584 42.6786 9.48227 42.5031 10.4466C42.3276 11.411 42.5031 13.1348 42.5031 13.1348H44.1211C46.2681 13.1348 47.5048 12.6171 48.5974 11.0225C49.3727 9.89116 49.6888 8.95208 49.6888 7.57305C49.6888 6.49708 49.1885 5.50994 48.739 4.64046C47.9212 3.05842 46.3595 1.97751 44.0537 1.97751ZM38.5237 2.52469V5.02172C38.5237 5.18643 38.7507 5.23077 38.8127 5.07817L39.445 3.5214C39.4597 3.48531 39.4878 3.45634 39.5234 3.44061L41.2879 2.66192C41.4363 2.59642 41.3894 2.37469 41.2272 2.37469H38.674C38.5912 2.37469 38.5237 2.44184 38.5237 2.52469Z" fill="white"/>
<path fill-rule="evenodd" clip-rule="evenodd" d="M130.861 24.0421C130.65 24.2849 130.823 24.6629 131.144 24.6629H150.155L151.08 18.6981C151.143 18.2898 150.827 17.9214 150.414 17.9214C150.171 17.9214 149.946 18.0531 149.826 18.2647C147.705 22.0118 146.738 23.3146 144.088 23.3146H141.998C139.908 23.3146 138.998 22.8427 138.998 21.0225V13.2023H143.279C144.626 13.2023 145.167 13.9537 145.507 15.7096C145.57 16.0307 145.846 16.2697 146.173 16.2697C146.518 16.2697 146.805 16.0052 146.827 15.6603C146.883 14.7539 146.955 13.0883 146.784 12.4438C146.616 11.8105 146.683 10.191 146.739 9.27505C146.76 8.92046 146.48 8.61799 146.125 8.61799C145.825 8.61799 145.572 8.83716 145.516 9.13133C145.176 10.9258 144.638 11.7191 143.279 11.7191H138.998V2.34833C138.998 2.34833 142.404 2.51687 143.717 2.34833C144.987 2.18531 147.237 3.3153 148.878 6.71445C148.981 6.92773 149.195 7.06743 149.432 7.06743C149.759 7.06743 150.026 6.80616 150.033 6.47919L150.121 2.53334C150.14 1.69208 149.463 1.00002 148.621 1.00002H131.23C130.965 1.00002 130.794 1.28185 130.917 1.51694C131.134 1.93154 131.545 2.20687 132.008 2.27335C133.715 2.51837 134.043 2.86622 134.043 4.50563C134.043 4.50563 134.137 7.87098 134.194 9.02524C134.254 10.2467 134.18 12.5533 134.115 14.5704L134.115 14.5708V14.5711C134.07 15.9917 134.029 17.2686 134.043 17.9214C134.114 21.2733 134.043 21.1573 134.043 21.1573C134.043 22.8472 133.763 23.1648 131.926 23.412C131.554 23.462 131.209 23.6404 130.963 23.9239L130.861 24.0421ZM134.924 4.96928V2.4577C134.924 2.37485 134.991 2.3077 135.074 2.3077H137.642C137.804 2.3077 137.851 2.52943 137.702 2.59493L135.927 3.37827C135.892 3.394 135.864 3.42297 135.849 3.45905L135.213 5.02573C135.151 5.17833 134.924 5.134 134.924 4.96928Z" fill="white"/>
<path fill-rule="evenodd" clip-rule="evenodd" d="M160.394 4.50563C160.394 4.50563 160.553 7.78772 160.394 12.7641C160.235 17.7404 160.394 21.0225 160.394 21.0225C160.394 22.8427 161.237 23.3146 163.327 23.3146H164.776C167.35 23.0935 167.948 22.0004 169.725 18.7508C169.922 18.3917 170.133 18.0062 170.362 17.5926C170.445 17.443 170.604 17.3483 170.775 17.3483C171.045 17.3483 171.26 17.5741 171.247 17.8436L170.929 24.3063C170.919 24.5061 170.754 24.6629 170.554 24.6629H153.366C153.022 24.6629 152.743 24.3838 152.743 24.0394C152.743 23.7225 152.982 23.4574 153.296 23.4155C155.156 23.1678 155.439 22.8553 155.439 21.1573C155.439 21.1573 155.175 17.045 155.439 12.8315C155.703 8.61799 155.439 4.50563 155.439 4.50563C155.439 2.80307 154.494 2.49349 152.512 2.24543C152.198 2.20607 151.959 1.94045 151.959 1.6235C151.959 1.27916 152.238 1.00002 152.583 1.00002H162.467C162.812 1.00002 163.091 1.27916 163.091 1.6235C163.091 1.94045 162.852 2.20558 162.538 2.24741C160.677 2.49515 160.394 2.80759 160.394 4.50563ZM156.446 2.46013L156.737 4.83605C156.757 5.00344 156.99 5.0485 157.033 4.89341L157.441 3.42141C157.451 3.38473 157.476 3.35529 157.509 3.33931L159.068 2.59959C159.209 2.53303 159.134 2.3077 158.972 2.3077H156.578C156.495 2.3077 156.436 2.37594 156.446 2.46013Z" fill="white"/>
</svg>
