<svg width="331" height="58" viewBox="0 0 331 58" fill="none" xmlns="http://www.w3.org/2000/svg">
<path fill-rule="evenodd" clip-rule="evenodd" d="M71.8006 8.41352C71.8006 8.41352 70.5491 17.0831 70.5733 22.6719C70.5963 27.9932 70.5733 35.7573 70.5733 35.7573C70.5733 45.627 76.0882 52.0989 84.9871 52.0989C93.886 52.0989 98.6059 46.8405 100.034 35.7573V8.49438C100.034 4.94028 96.1475 3.8954 93.7219 3.24332C93.166 3.09389 92.6869 2.9651 92.3489 2.83146C90.5358 2.11464 92.3489 0 92.3489 0H112.329C112.474 0 112.613 0.0204324 112.745 0.0585624C112.811 0.0513768 112.878 0.0486636 112.946 0.0507303C117.828 0.198909 122.062 0.133428 126.216 0.0691814C127.337 0.051838 128.453 0.0345846 129.574 0.0216488C131.442 9.26929e-05 132.981 1.44679 133.564 3.22132C133.728 3.72085 133.915 4.23276 134.118 4.79093L134.17 4.93487L147.357 40.2068L159.653 4.85397C159.701 4.72122 159.749 4.59161 159.795 4.46465C159.957 4.02316 160.106 3.61368 160.241 3.21503C160.841 1.44657 162.381 4.37736e-05 164.248 4.37736e-05H209.048C224.257 4.37736e-05 231.376 7.60453 231.376 16.827C231.376 27.4247 224.014 34.2203 208.886 34.2203H202.657V47.8112C202.657 52.0457 204.565 53.2411 210.958 53.7755C211.748 53.8415 212.364 54.4953 212.364 55.2879C212.364 56.1181 211.692 56.791 210.861 56.791H185.789C184.963 56.791 184.293 56.1211 184.293 55.2947C184.293 54.534 184.867 53.8977 185.621 53.7973C190.086 53.2027 190.764 52.4528 190.764 48.3775C191.634 19.2606 191.634 12.863 191.634 8.41352C191.634 3.96408 187.106 2.8315 181.425 2.8315C176.247 3.0742 172.192 4.44948 172.192 8.73711V49.1056C172.631 52.616 173.88 53.8383 177.403 54.22C178.075 54.2927 178.604 54.8437 178.604 55.5192C178.604 56.2216 178.035 56.791 177.332 56.791H153.594C152.886 56.791 152.312 56.2169 152.312 55.5088C152.312 54.836 152.834 54.2805 153.503 54.2151C158.391 53.7377 160.948 52.539 160.948 48.8629V13.3483L145.415 56.791H141.37L125.028 13.3483V48.782C125.028 52.513 126.748 54.1167 131.875 54.6297C132.437 54.6859 132.876 55.1517 132.876 55.7166C132.876 56.31 132.395 56.791 131.801 56.791H114.248C114.226 56.791 114.203 56.7909 114.181 56.7901C114.163 56.7895 114.146 56.7885 114.129 56.787C113.887 56.7659 113 56.6387 113.165 55.9176C113.482 54.5308 114.752 54.245 116.219 53.9149C118.277 53.4519 120.722 52.9018 121.469 49.1056C122.748 42.6025 121.469 8.73711 121.469 8.73711C121.469 4.81658 117.575 3.33105 112.826 2.91986L112.806 2.91802C112.708 2.95183 112.605 2.97601 112.499 2.98938C107.583 3.60667 104.403 4.47683 104.403 8.49438C104.403 8.49438 105.494 24.3091 103.983 37.5738C102.471 50.8385 94.8568 57.6 82.8837 57.6C68.5646 57.6 59.9894 50.9663 59.9894 37.0517V8.41352C59.9894 4.26968 59.2877 3.14298 54.617 2.48497C53.9929 2.39705 53.5175 1.87009 53.5175 1.23984C53.5175 0.55512 54.0726 4.37736e-05 54.7573 4.37736e-05H76.7761C77.6025 4.37736e-05 78.2725 0.669989 78.2725 1.49641C78.2725 2.25709 77.6985 2.89338 76.9445 2.99378C72.4792 3.58835 71.8006 4.33822 71.8006 8.41352ZM202.657 3.23599V30.7416H206.135C215.115 30.7416 219.241 25.645 219.241 17.0697C219.241 8.97981 214.872 3.23599 206.135 3.23599H202.657ZM61.992 9.65223V3.65935C61.992 3.46052 62.1538 3.29935 62.3527 3.29935H68.4803C68.8696 3.29935 68.9821 3.8315 68.6259 3.9887L64.3912 5.85757C64.3057 5.89531 64.2382 5.96484 64.203 6.05145L62.6855 9.7877C62.5368 10.154 61.992 10.0475 61.992 9.65223ZM130.604 3.28734L124.155 3.28641C123.772 3.28636 123.653 3.8053 123.999 3.971L128.769 6.25922C128.818 6.28247 128.86 6.31628 128.894 6.35816L132.035 10.2636C132.279 10.5669 132.764 10.3204 132.664 9.94436L130.951 3.55456C130.909 3.39719 130.767 3.28736 130.604 3.28734ZM169.835 3.13078L164.008 3.13162C163.845 3.13164 163.703 3.24121 163.66 3.39858L162.115 9.1661C162.014 9.54217 162.499 9.78881 162.743 9.48543L165.565 5.97712C165.599 5.93523 165.642 5.90142 165.69 5.87817L169.99 3.81537C170.336 3.64967 170.218 3.13073 169.835 3.13078ZM193.872 2.73296L194.389 7.56521C194.435 7.99746 195.066 7.99263 195.105 7.55972L195.318 5.23839C195.33 5.10817 195.411 4.99465 195.531 4.94185L199.877 3.02401C200.233 2.86681 200.12 2.33466 199.731 2.33466H194.231C194.017 2.33466 193.849 2.52019 193.872 2.73296Z" fill="#151413"/>
<path fill-rule="evenodd" clip-rule="evenodd" d="M20.576 32.5214V48.3775C20.576 52.4528 21.2547 53.2027 25.7199 53.7973C26.474 53.8977 27.0479 54.534 27.0479 55.2947C27.0479 56.1211 26.378 56.791 25.5516 56.791H3.70836C2.88194 56.791 2.212 56.1211 2.212 55.2947C2.212 54.534 2.78596 53.8977 3.53999 53.7973C8.00525 53.2027 8.6839 52.4528 8.6839 48.3775V8.41352C8.6839 8.41352 8.07197 4.32691 2.99108 3.62123C2.99108 3.62123 0.288318 3.37827 0.288086 1.89203C0.287854 0.405787 2.212 4.37736e-05 2.212 4.37736e-05H28.0187C41.4479 4.37736e-05 49.6299 6.31015 49.6299 15.7753C49.6299 24.5933 42.0951 29.2045 36.0277 30.7416C36.0277 30.7416 41.1757 38.1912 41.7824 39.3348C42.3892 40.4783 48.2434 47.3259 48.2434 47.3259C51.8839 52.2607 53.9064 53.8787 58.1131 53.9596V56.791H42.7423C40.3963 55.0921 38.3738 52.5034 35.9468 48.8629C35.9468 48.8629 32.6445 44.2516 30.3648 40.6922C28.0851 37.1327 24.7828 32.5214 24.7828 32.5214H20.576ZM24.2974 2.34602H20.576C20.576 2.34602 20.2907 6.82714 20.576 9.76858C20.8614 12.71 20.9973 20.3575 20.576 22.6719C20.1548 24.9864 20.576 29.1236 20.576 29.1236H24.4592C29.612 29.1236 32.5802 27.8809 35.2024 24.054C37.0629 21.3388 37.8218 19.085 37.8218 15.7753C37.8218 13.193 36.621 10.8239 35.5423 8.73711C33.5796 4.94021 29.8313 2.34602 24.2974 2.34602ZM11.0255 3.65925V9.65213C11.0255 10.0474 11.5703 10.1539 11.7191 9.7876L13.2366 6.05136C13.2717 5.96475 13.3392 5.89521 13.4248 5.85747L17.6595 3.9886C18.0157 3.8314 17.9032 3.29925 17.5138 3.29925H11.3862C11.1874 3.29925 11.0255 3.46043 11.0255 3.65925Z" fill="#151413"/>
<path fill-rule="evenodd" clip-rule="evenodd" d="M232.635 55.3011C232.129 55.8838 232.543 56.791 233.314 56.791H278.941L281.159 42.4755C281.311 41.4956 280.553 40.6113 279.562 40.6113C278.978 40.6113 278.439 40.9273 278.152 41.4354C273.061 50.4284 270.741 53.5551 264.379 53.5551H259.363C254.347 53.5551 252.163 52.4225 252.163 48.0539V29.2854H262.437C265.672 29.2854 266.969 31.089 267.786 35.3031C267.935 36.0738 268.598 36.6472 269.383 36.6472C270.212 36.6472 270.902 36.0126 270.953 35.1848C271.087 33.0095 271.26 29.0119 270.851 27.4652C270.448 25.9452 270.609 22.0585 270.742 19.8601C270.793 19.0091 270.12 18.2832 269.267 18.2832C268.549 18.2832 267.941 18.8092 267.808 19.5152C266.992 23.8219 265.701 25.7259 262.437 25.7259H252.163V3.23599C252.163 3.23599 260.338 3.64049 263.489 3.23599C266.537 2.84474 271.938 5.55673 275.876 13.7147C276.123 14.2266 276.636 14.5618 277.205 14.5618C277.99 14.5618 278.631 13.9348 278.648 13.1501L278.859 3.68002C278.904 1.66099 277.279 4.37736e-05 275.26 4.37736e-05H233.52C232.883 4.37736e-05 232.474 0.676434 232.77 1.24066C233.291 2.2357 234.275 2.89649 235.387 3.05605C239.485 3.64409 240.271 4.47892 240.271 8.41352C240.271 8.41352 240.496 16.4904 240.633 19.2606C240.778 22.192 240.601 27.728 240.445 32.5689L240.445 32.5699V32.5705C240.336 35.9801 240.238 39.0447 240.271 40.6113C240.442 48.656 240.271 48.3775 240.271 48.3775C240.271 52.4332 239.599 53.1954 235.191 53.7887C234.298 53.9089 233.471 54.3371 232.881 55.0175L232.635 55.3011ZM242.385 9.52628V3.49847C242.385 3.29965 242.547 3.13847 242.746 3.13847H248.908C249.298 3.13847 249.41 3.67063 249.054 3.82782L244.794 5.70785C244.709 5.74559 244.641 5.81512 244.606 5.90173L243.079 9.66175C242.93 10.028 242.385 9.92159 242.385 9.52628Z" fill="#151413"/>
<path fill-rule="evenodd" clip-rule="evenodd" d="M303.515 8.41352C303.515 8.41352 303.896 16.2905 303.515 28.2337C303.134 40.1769 303.515 48.0539 303.515 48.0539C303.515 52.4225 305.537 53.5551 310.553 53.5551H314.032C320.208 53.0245 321.643 50.401 325.909 42.6019C326.381 41.74 326.887 40.8148 327.437 39.8223C327.637 39.4633 328.018 39.236 328.429 39.236C329.076 39.236 329.592 39.7778 329.56 40.4245L328.797 55.9352C328.774 56.4145 328.378 56.791 327.898 56.791H286.647C285.821 56.791 285.151 56.1211 285.151 55.2947C285.151 54.534 285.725 53.8977 286.479 53.7973C290.944 53.2027 291.623 52.4528 291.623 48.3775C291.623 48.3775 290.989 38.5079 291.623 28.3955C292.256 18.2832 291.623 8.41352 291.623 8.41352C291.623 4.32737 289.354 3.58438 284.598 2.98904C283.843 2.89456 283.27 2.25709 283.27 1.49641C283.27 0.669989 283.94 4.37736e-05 284.767 4.37736e-05H308.49C309.317 4.37736e-05 309.987 0.669989 309.987 1.49641C309.987 2.25709 309.413 2.89338 308.659 2.99378C304.193 3.58835 303.515 4.33822 303.515 8.41352ZM294.04 3.50432L294.736 9.20653C294.786 9.60826 295.344 9.7164 295.447 9.3442L296.427 5.81138C296.452 5.72336 296.51 5.6527 296.591 5.61434L300.333 3.83902C300.67 3.67926 300.491 3.13847 300.101 3.13847H294.356C294.157 3.13847 294.015 3.30226 294.04 3.50432Z" fill="#151413"/>
</svg>
