<svg width="40" height="47" viewBox="0 0 40 47" fill="none" xmlns="http://www.w3.org/2000/svg">
<path d="M22.1815 2.31312C23.0576 3.17039 23.122 4.59754 22.5601 5.63065C22.5482 5.65345 22.5473 5.67651 22.5577 5.69985C23.4143 7.64968 24.1374 9.3536 25.1398 10.7669C26.3913 12.5319 27.6763 14.1895 28.765 16.1531C28.9588 16.5032 28.9612 16.7889 28.9173 17.1675C28.9146 17.1941 28.9213 17.2175 28.9376 17.2375C29.5068 17.9401 30.1826 17.932 31.0482 17.8587C32.3397 17.7485 33.2409 17.7023 33.7517 17.7203C37.0577 17.8343 39.7994 20.1252 39.9818 23.5185C40.0746 25.2387 39.8263 26.8351 38.9256 28.2786C37.9637 29.8194 36.6584 31.0143 35.0098 31.8631C34.6465 32.0504 34.2821 32.2358 33.9161 32.4192C32.3658 33.1974 31.6402 35.5055 32.0417 37.0995C32.1535 37.5413 32.4865 38.5199 33.0408 40.0352C33.1184 40.2464 33.1502 40.4116 33.1361 40.5311C33.0677 41.1123 32.1711 41.3753 31.6728 41.4209C31.6602 41.4221 31.6483 41.4274 31.6389 41.4361C31.6295 41.4448 31.6231 41.4563 31.6207 41.4689C31.3804 42.8374 30.6745 44.3004 29.5108 45.1121C29.1775 45.3444 28.6971 45.5615 28.0696 45.7634C26.378 46.3072 24.6499 46.6041 22.885 46.654C20.0326 46.7354 17.3218 46.5466 14.6607 45.6038C13.3424 45.1365 12.4092 43.9861 11.9393 42.7031C11.095 40.3967 11.3962 37.9324 12.4377 35.7497C12.8 34.991 13.2292 34.1508 13.5036 33.4483C14.5288 30.8243 14.7112 27.983 14.195 25.22C13.5948 22.0082 11.0136 19.5236 7.9323 18.6011C5.59037 17.901 3.08889 18.0492 0.709537 18.2829C-0.16175 18.3684 -0.174779 17.9092 0.367536 17.4394C1.81696 16.184 3.71751 15.5653 5.61724 15.3634C7.92574 15.1167 10.095 15.4058 12.1193 16.5333C12.9344 16.9876 13.4148 17.5176 14.1094 18.2674C14.2212 18.3879 14.3309 18.4657 14.4384 18.5011C14.446 18.5034 14.4541 18.504 14.4619 18.5026C14.4698 18.5013 14.4771 18.498 14.4834 18.4932C14.4896 18.4884 14.4946 18.4821 14.4978 18.475C14.5011 18.4678 14.5025 18.46 14.5019 18.4522C14.4661 17.8937 14.3942 17.3458 14.2861 16.8085C14.2235 16.495 14.4384 16.2044 14.5858 15.9309C15.6647 13.9306 17.1679 12.111 18.5562 10.0928C18.6458 9.96256 18.7232 9.83178 18.7883 9.70043C19.4409 8.38429 20.0657 7.05482 20.6628 5.71206C20.6737 5.68656 20.6726 5.66186 20.6596 5.63798C20.0928 4.59347 20.1441 3.17772 21.0447 2.31801C21.0536 2.30967 21.0595 2.29865 21.0614 2.28669C21.0634 2.27474 21.0612 2.26255 21.0553 2.25206C20.8072 1.80593 20.744 1.33265 20.8656 0.832246C20.9633 0.428444 21.4039 -0.245645 21.8712 0.0913998C22.5463 0.577428 22.5373 1.58286 22.1717 2.248C22.1581 2.27187 22.1614 2.29359 22.1815 2.31312ZM38.4566 24.6834C38.3165 22.723 37.0927 20.8831 35.1816 20.2473C32.8324 19.4657 29.8513 20.9947 28.2072 22.6099C28.1876 22.6288 28.1771 22.6519 28.1755 22.6791C28.1032 23.8352 28.0804 24.9922 28.107 26.1505C28.173 29.008 28.9775 31.9389 30.1892 34.5221C30.2027 34.5508 30.2171 34.5513 30.2323 34.5237C31.0792 33.0046 32.3234 31.8403 33.7794 30.9204C34.3836 30.5394 35.2744 30.1633 35.8249 29.8319C36.3878 29.4921 36.9152 28.9806 37.407 28.2973C38.2001 27.1944 38.55 25.9898 38.4566 24.6834Z" fill="#242424"/>
</svg>
