<svg width="40" height="40" viewBox="0 0 40 40" fill="none" xmlns="http://www.w3.org/2000/svg">
<path fill-rule="evenodd" clip-rule="evenodd" d="M0 20.001C0 8.95448 8.92813 0 19.9402 0C30.9543 0 39.8825 8.95448 39.8815 20C39.8815 23.9124 38.7611 27.5621 36.8253 30.6441C36.2916 31.4933 35.697 32.2991 35.0455 33.0569L19.9668 17.9336L7.00029 30.9372L4.85947 33.0844C4.20605 32.3286 3.60954 31.5237 3.07581 30.6755C1.1273 27.5877 0 23.9262 0 20.001ZM34.5393 27.7943L34.7218 27.4283L34.7228 27.4293C35.8667 25.1404 36.4711 22.5712 36.4711 20.001C36.4711 10.8596 29.0558 3.42238 19.9412 3.42238C10.8266 3.42238 3.41233 10.8596 3.41233 20.001C3.41233 22.585 4.02259 25.165 5.17734 27.4628L5.36087 27.8268L19.9668 13.1778L34.5393 27.7943ZM19.941 40C24.9055 40 29.4471 38.1805 32.9379 35.1695V35.1685L19.9676 22.1599L6.97259 35.1922C10.4585 38.1904 14.9766 40 19.941 40Z" fill="#242424"/>
</svg>
