<svg width="172" height="25" viewBox="0 0 172 25" fill="none" xmlns="http://www.w3.org/2000/svg">
<path fill-rule="evenodd" clip-rule="evenodd" d="M13.8723 24.3187C20.5262 24.3187 25.9203 18.9246 25.9203 12.2707C25.9203 5.61673 20.5262 0.222656 13.8723 0.222656C7.21837 0.222656 1.8243 5.61673 1.8243 12.2707C1.8243 18.9246 7.21837 24.3187 13.8723 24.3187ZM8.58845 16.6147C7.50698 17.67 6.27536 18.834 5.10152 16.3346C3.92768 13.8353 3.92881 10.4636 5.28751 7.93443C6.37524 5.90971 7.72056 6.69608 8.78193 7.73085L13.2391 12.0763L8.58845 16.6147ZM9.81442 6.93314C8.71547 5.86357 8.07029 4.06128 9.96834 3.3087C12.4379 1.93514 15.4332 2.04185 17.8731 3.31518C19.9139 4.38017 19.229 5.90352 18.0985 7.00385L13.9928 10.9999L9.81442 6.93314ZM18.5792 20.9532C20.0881 19.9967 19.6102 18.5967 18.6317 17.6056L13.9928 12.9067L9.35145 17.6074C8.33792 18.6339 7.39774 19.8215 9.46708 21.0482C12.1787 22.6556 16.0117 22.5807 18.5792 20.9532ZM22.7247 15.7063C21.8893 18.0524 20.1962 17.3763 19.0101 16.2006L14.849 12.0763L18.9927 7.97011C20.1274 6.84568 21.6936 6.11204 22.606 8.35387C23.5184 10.5957 23.5601 13.3602 22.7247 15.7063Z" fill="#151413"/>
<path d="M4.43523 22.147C4.43523 23.34 3.46817 24.307 2.27523 24.307C1.0823 24.307 0.115234 23.34 0.115234 22.147C0.115234 20.9541 1.0823 19.987 2.27523 19.987C3.46817 19.987 4.43523 20.9541 4.43523 22.147Z" fill="#151413"/>
<path fill-rule="evenodd" clip-rule="evenodd" d="M63.8467 4.25563C63.8467 4.25563 63.3252 7.86798 63.3353 10.1966C63.3449 12.4138 63.3353 15.6489 63.3353 15.6489C63.3353 19.7612 65.6332 22.4579 69.3411 22.4579C73.0489 22.4579 75.0156 20.2669 75.6107 15.6489V4.28932C75.6107 2.80845 73.9912 2.37308 72.9805 2.10138C72.7489 2.03912 72.5493 1.98546 72.4085 1.92977C71.653 1.6311 72.4085 0.75 72.4085 0.75H80.7336C80.7938 0.75 80.8519 0.758514 80.9069 0.774401C80.9344 0.771407 80.9623 0.770276 80.9907 0.771138C83.0249 0.832879 84.7889 0.805595 86.5197 0.778826C86.9869 0.771599 87.4518 0.76441 87.9188 0.75902C88.6971 0.750039 89.3384 1.35283 89.5815 2.09221C89.6499 2.30036 89.7275 2.51365 89.8121 2.74622L89.834 2.8062L95.3283 17.5028L100.452 2.77249C100.472 2.71717 100.492 2.66317 100.511 2.61027C100.578 2.42632 100.641 2.2557 100.697 2.0896C100.947 1.35274 101.588 0.750018 102.366 0.750018H121.033C127.37 0.750018 130.336 3.91856 130.336 7.76125C130.336 12.177 127.269 15.0084 120.966 15.0084H118.37V20.6714C118.37 22.4357 119.165 22.9338 121.829 23.1565C122.158 23.184 122.415 23.4564 122.415 23.7866C122.415 24.1325 122.135 24.4129 121.789 24.4129H111.342C110.997 24.4129 110.718 24.1338 110.718 23.7894C110.718 23.4725 110.957 23.2074 111.272 23.1655C113.132 22.9178 113.415 22.6053 113.415 20.9073C113.777 8.77524 113.777 6.10956 113.777 4.25563C113.777 2.4017 111.891 1.92979 109.523 1.92979C107.366 2.03092 105.677 2.60395 105.677 4.39046V21.2107C105.859 22.6733 106.38 23.1826 107.848 23.3417C108.128 23.372 108.348 23.6015 108.348 23.883C108.348 24.1757 108.111 24.4129 107.818 24.4129H97.9273C97.6323 24.4129 97.3931 24.1737 97.3931 23.8786C97.3931 23.5984 97.6105 23.3669 97.8895 23.3396C99.926 23.1407 100.991 22.6412 100.991 21.1095V6.31181L94.5193 24.4129H92.834L86.025 6.31181V21.0758C86.025 22.6304 86.7416 23.2986 88.8776 23.5124C89.1118 23.5358 89.2946 23.7299 89.2946 23.9653C89.2946 24.2125 89.0942 24.4129 88.847 24.4129H81.5331C81.5237 24.4129 81.5144 24.4129 81.5051 24.4125C81.4979 24.4123 81.4907 24.4119 81.4834 24.4113C81.3829 24.4024 81.0133 24.3495 81.0818 24.049C81.2137 23.4712 81.743 23.3521 82.3544 23.2145C83.2119 23.0216 84.2308 22.7924 84.5418 21.2107C85.0746 18.5011 84.5418 4.39046 84.5418 4.39046C84.5418 2.75691 82.9192 2.13794 80.9405 1.96661L80.9323 1.96584C80.8914 1.97993 80.8485 1.99 80.8041 1.99558C78.7559 2.25278 77.4309 2.61535 77.4309 4.28932C77.4309 4.28932 77.8857 10.8788 77.2559 16.4058C76.6261 21.9327 73.4534 24.75 68.4647 24.75C62.4984 24.75 58.9253 21.986 58.9253 16.1882V4.25563C58.9253 2.52903 58.633 2.05958 56.6868 1.78541C56.4268 1.74877 56.2287 1.52921 56.2287 1.2666C56.2287 0.9813 56.46 0.750018 56.7453 0.750018H65.9198C66.2642 0.750018 66.5433 1.02916 66.5433 1.3735C66.5433 1.69045 66.3042 1.95558 65.99 1.99741C64.1295 2.24515 63.8467 2.55759 63.8467 4.25563ZM118.37 2.09833V13.559H119.819C123.561 13.559 125.28 11.4354 125.28 7.86237C125.28 4.49159 123.46 2.09833 119.819 2.09833H118.37ZM59.7598 4.77176V2.27473C59.7598 2.19189 59.8272 2.12473 59.91 2.12473H62.4632C62.6254 2.12473 62.6723 2.34646 62.5239 2.41196L60.7594 3.19065C60.7238 3.20638 60.6957 3.23535 60.681 3.27144L60.0487 4.82821C59.9868 4.98081 59.7598 4.93647 59.7598 4.77176ZM88.3479 2.11972L85.6609 2.11934C85.5012 2.11931 85.4521 2.33554 85.596 2.40458L87.5836 3.35801C87.6038 3.36769 87.6215 3.38178 87.6356 3.39923L88.9445 5.02648C89.0462 5.15289 89.2482 5.05018 89.2062 4.89348L88.4929 2.23107C88.4753 2.1655 88.4158 2.11973 88.3479 2.11972ZM104.694 2.05449L102.267 2.05484C102.199 2.05485 102.139 2.10051 102.122 2.16608L101.478 4.56921C101.436 4.72591 101.638 4.82867 101.739 4.70226L102.915 3.24047C102.929 3.22301 102.947 3.20893 102.967 3.19924L104.759 2.33974C104.903 2.2707 104.854 2.05447 104.694 2.05449ZM114.71 1.88873L114.925 3.90217C114.944 4.08227 115.207 4.08026 115.224 3.89988L115.312 2.93266C115.317 2.8784 115.351 2.8311 115.401 2.8091L117.212 2.01C117.36 1.94451 117.313 1.72277 117.151 1.72277H114.859C114.77 1.72277 114.7 1.80008 114.71 1.88873Z" fill="#151413"/>
<path fill-rule="evenodd" clip-rule="evenodd" d="M42.5031 14.3006V20.9073C42.5031 22.6053 42.7859 22.9178 44.6464 23.1655C44.9606 23.2074 45.1997 23.4725 45.1997 23.7894C45.1997 24.1338 44.9206 24.4129 44.5763 24.4129H35.4749C35.1306 24.4129 34.8514 24.1338 34.8514 23.7894C34.8514 23.4725 35.0906 23.2074 35.4048 23.1655C37.2653 22.9178 37.5481 22.6053 37.5481 20.9073V4.25563C37.5481 4.25563 37.2931 2.55288 35.1761 2.25885C35.1761 2.25885 34.0499 2.15761 34.0498 1.53834C34.0497 0.919078 34.8514 0.750018 34.8514 0.750018H45.6042C51.1997 0.750018 54.6089 3.37923 54.6089 7.32305C54.6089 10.9972 51.4694 12.9186 48.9413 13.559C48.9413 13.559 51.0863 16.663 51.3391 17.1395C51.5919 17.616 54.0312 20.4691 54.0312 20.4691C55.5481 22.5253 56.3908 23.1994 58.1436 23.2332V24.4129H51.7391C50.7615 23.7051 49.9188 22.6264 48.9076 21.1096C48.9076 21.1096 47.5316 19.1882 46.5818 17.7051C45.6319 16.222 44.2559 14.3006 44.2559 14.3006H42.5031ZM44.0537 1.72751H42.5031C42.5031 1.72751 42.3842 3.59464 42.5031 4.82024C42.622 6.04584 42.6786 9.23227 42.5031 10.1966C42.3276 11.161 42.5031 12.8848 42.5031 12.8848H44.1211C46.2681 12.8848 47.5048 12.3671 48.5974 10.7725C49.3727 9.64116 49.6888 8.70208 49.6888 7.32305C49.6888 6.24708 49.1885 5.25994 48.739 4.39046C47.9212 2.80842 46.3595 1.72751 44.0537 1.72751ZM38.5237 2.27469V4.77172C38.5237 4.93643 38.7507 4.98077 38.8127 4.82817L39.445 3.2714C39.4597 3.23531 39.4878 3.20634 39.5234 3.19061L41.2879 2.41192C41.4363 2.34642 41.3894 2.12469 41.2272 2.12469H38.674C38.5912 2.12469 38.5237 2.19184 38.5237 2.27469Z" fill="#151413"/>
<path fill-rule="evenodd" clip-rule="evenodd" d="M130.861 23.7921C130.65 24.0349 130.823 24.4129 131.144 24.4129H150.155L151.08 18.4481C151.143 18.0398 150.827 17.6714 150.414 17.6714C150.171 17.6714 149.946 17.8031 149.826 18.0147C147.705 21.7618 146.738 23.0646 144.088 23.0646H141.998C139.908 23.0646 138.998 22.5927 138.998 20.7725V12.9523H143.279C144.626 12.9523 145.167 13.7037 145.507 15.4596C145.57 15.7807 145.846 16.0197 146.173 16.0197C146.518 16.0197 146.805 15.7552 146.827 15.4103C146.883 14.5039 146.955 12.8383 146.784 12.1938C146.616 11.5605 146.683 9.94104 146.739 9.02505C146.76 8.67046 146.48 8.36799 146.125 8.36799C145.825 8.36799 145.572 8.58716 145.516 8.88133C145.176 10.6758 144.638 11.4691 143.279 11.4691H138.998V2.09833C138.998 2.09833 142.404 2.26687 143.717 2.09833C144.987 1.93531 147.237 3.0653 148.878 6.46445C148.981 6.67773 149.195 6.81743 149.432 6.81743C149.759 6.81743 150.026 6.55616 150.033 6.22919L150.121 2.28334C150.14 1.44208 149.463 0.750018 148.621 0.750018H131.23C130.965 0.750018 130.794 1.03185 130.917 1.26694C131.134 1.68154 131.545 1.95687 132.008 2.02335C133.715 2.26837 134.043 2.61622 134.043 4.25563C134.043 4.25563 134.137 7.62098 134.194 8.77524C134.254 9.99669 134.18 12.3033 134.115 14.3204L134.115 14.3208V14.3211C134.07 15.7417 134.029 17.0186 134.043 17.6714C134.114 21.0233 134.043 20.9073 134.043 20.9073C134.043 22.5972 133.763 22.9148 131.926 23.162C131.554 23.212 131.209 23.3904 130.963 23.6739L130.861 23.7921ZM134.924 4.71928V2.2077C134.924 2.12485 134.991 2.0577 135.074 2.0577H137.642C137.804 2.0577 137.851 2.27943 137.702 2.34493L135.927 3.12827C135.892 3.144 135.864 3.17297 135.849 3.20905L135.213 4.77573C135.151 4.92833 134.924 4.884 134.924 4.71928Z" fill="#151413"/>
<path fill-rule="evenodd" clip-rule="evenodd" d="M160.394 4.25563C160.394 4.25563 160.553 7.53772 160.394 12.5141C160.235 17.4904 160.394 20.7725 160.394 20.7725C160.394 22.5927 161.237 23.0646 163.327 23.0646H164.776C167.35 22.8435 167.948 21.7504 169.725 18.5008C169.922 18.1417 170.133 17.7562 170.362 17.3426C170.445 17.193 170.604 17.0983 170.775 17.0983C171.045 17.0983 171.26 17.3241 171.247 17.5936L170.929 24.0563C170.919 24.2561 170.754 24.4129 170.554 24.4129H153.366C153.022 24.4129 152.743 24.1338 152.743 23.7894C152.743 23.4725 152.982 23.2074 153.296 23.1655C155.156 22.9178 155.439 22.6053 155.439 20.9073C155.439 20.9073 155.175 16.7949 155.439 12.5815C155.703 8.36799 155.439 4.25563 155.439 4.25563C155.439 2.55307 154.494 2.24349 152.512 1.99543C152.198 1.95607 151.959 1.69045 151.959 1.3735C151.959 1.02916 152.238 0.750018 152.583 0.750018H162.467C162.812 0.750018 163.091 1.02916 163.091 1.3735C163.091 1.69045 162.852 1.95558 162.538 1.99741C160.677 2.24515 160.394 2.55759 160.394 4.25563ZM156.446 2.21013L156.737 4.58605C156.757 4.75344 156.99 4.7985 157.033 4.64341L157.441 3.17141C157.451 3.13473 157.476 3.10529 157.509 3.08931L159.068 2.34959C159.209 2.28303 159.134 2.0577 158.972 2.0577H156.578C156.495 2.0577 156.436 2.12594 156.446 2.21013Z" fill="#151413"/>
</svg>
